Coordinates
nRows=7
nColumns=38

# SIMM Motion File Header:
name Coordinates
datacolumns 38
datarows 7
otherdata 1
range 0.53400000000000003000 0.54000000000000004000

Units are S.I. units (second, meters, Newtons, ...)
Angles are in degrees.

endheader
time	pelvis_tilt	pelvis_list	pelvis_rotation	pelvis_tx	pelvis_ty	pelvis_tz	hip_flexion_r	hip_adduction_r	hip_rotation_r	knee_angle_r	ankle_angle_r	subtalar_angle_r	mtp_angle_r	hip_flexion_l	hip_adduction_l	hip_rotation_l	knee_angle_l	ankle_angle_l	subtalar_angle_l	mtp_angle_l	lumbar_extension	lumbar_bending	lumbar_rotation	arm_flex_r	arm_add_r	arm_rot_r	elbow_flex_r	pro_sup_r	wrist_flex_r	wrist_dev_r	arm_flex_l	arm_add_l	arm_rot_l	elbow_flex_l	pro_sup_l	wrist_flex_l	wrist_dev_l
      0.53400000000000003000	     -6.91657789793644540000	      1.23902407154656880000	     -4.10096936700016720000	      0.75375340586397144000	      0.97873273128454208000	     -0.31496665263726359000	      4.08785891750701950000	      3.00379663896279370000	     -3.71416301337428220000	    -32.45834043777352200000	     11.22051055131810700000	      0.00000000000006819929	      0.00000000000001380537	     44.77978971820368800000	     -1.19294018474747190000	     -5.36055754783277210000	   -123.01035486222978000000	     -2.70733452507305160000	      0.00000000000001184459	     -0.00000000000001116055	     -2.84076560740509440000	      2.91413430248746110000	      8.00389635003677040000	     -4.85924854819283160000	    -26.76856354116898000000	     -7.67336393663317560000	     75.67823595242700200000	     86.99848213704008500000	      0.00000000000000726327	      0.00000000000001895211	    -22.62874344965158400000	    -39.06332236877587900000	     36.61974697200614100000	     70.07101529260519600000	     85.07592621045100100000	      0.00000000000000694896	     -0.00000000000000432027
      0.53500000000000003000	     -6.86031646768685820000	      1.43000722576753490000	     -4.14040136070452560000	      0.75397935164800522000	      0.97944134839905173000	     -0.31492008763066404000	      3.58260051501830380000	      2.75861503041170230000	     -3.68497065248861540000	    -32.14493860458718200000	     10.71852838930794300000	      0.00000000000006897291	      0.00000000000001410290	     44.99659042344777000000	     -0.99510860798886880000	     -5.50048730876495020000	   -122.55996440259698000000	     -2.68332250197232500000	      0.00000000000001196879	     -0.00000000000001149062	     -2.85738005293962690000	      2.67698826598957050000	      8.19311436457258320000	     -4.83297519734392810000	    -26.70064734303641500000	     -7.69606150544739890000	     75.96482855323294800000	     86.97354454007026400000	      0.00000000000000734186	      0.00000000000001911666	    -22.88125038792066600000	    -39.21560585712116200000	     36.64346541298070300000	     70.31953472673448900000	     84.82121855356633900000	      0.00000000000000708418	     -0.00000000000000435237
      0.53600000000000003000	     -6.80409443418232750000	      1.62043517167133190000	     -4.17956678500322720000	      0.75421239599355561000	      0.98015591785834899000	     -0.31487252152593026000	      3.07815525546103210000	      2.51347784592626680000	     -3.65940416400750970000	    -31.82773380912231800000	     10.20003456700158600000	      0.00000000000006976878	      0.00000000000001432232	     45.20758738631939600000	     -0.80006304153258878000	     -5.64102357765864950000	   -122.10113264889640000000	     -2.66164616509674760000	      0.00000000000001210157	     -0.00000000000001182492	     -2.87301033787456060000	      2.44011017732638800000	      8.38164462740124530000	     -4.80974946115472160000	    -26.63354868324608700000	     -7.71678071571827040000	     76.25262856045989700000	     86.94767597859294000000	      0.00000000000000741976	      0.00000000000001928039	    -23.13654247517676800000	    -39.36672457695004100000	     36.65901008640834400000	     70.56914828990272800000	     84.57249432721566500000	      0.00000000000000721599	     -0.00000000000000438261
      0.53700000000000003000	     -6.74829988474980170000	      1.81004840410085510000	     -4.21832517365978440000	      0.75445201184538313000	      0.98087538005748576000	     -0.31482425893641469000	      2.57513636311444660000	      2.26869762353771650000	     -3.63771236742535110000	    -31.50701375535574300000	      9.66519871735476070000	      0.00000000000007056982	      0.00000000000001457481	     45.41330992318003700000	     -0.60794906997149922000	     -5.78176626418716120000	   -121.63417573520711000000	     -2.64233559293250360000	      0.00000000000001223693	     -0.00000000000001213825	     -2.88728773691014420000	      2.20386097848244010000	      8.56937293512801550000	     -4.78962183798535520000	    -26.56733514224428600000	     -7.73563715177307020000	     76.54162791789879300000	     86.92125255567144400000	      0.00000000000000749987	      0.00000000000001944701	    -23.39461764893834000000	    -39.51655277179157400000	     36.66627139865489200000	     70.81970720552286000000	     84.33002975295166000000	      0.00000000000000734090	     -0.00000000000000441403
      0.53800000000000003000	     -6.69331942874166770000	      1.99858881073216120000	     -4.25653494805368030000	      0.75469767098410390000	      0.98159867635196574000	     -0.31477561306292667000	      2.07415628106310020000	      2.02458788601362820000	     -3.62014209890073290000	    -31.18308610794278500000	      9.11422835056036360000	      0.00000000000007135155	      0.00000000000001482000	     45.61428473433177500000	     -0.41890570365073299000	     -5.92231796277151100000	   -121.15940843153611000000	     -2.62542033555600970000	      0.00000000000001236141	     -0.00000000000001242401	     -2.89984712696404220000	      1.96860132063809750000	      8.75618520305286910000	     -4.77263932954893730000	    -26.50207179535101400000	     -7.75274540708910110000	     76.83181702289964200000	     86.89463701145344000000	      0.00000000000000758127	      0.00000000000001960013	    -23.65547126912580500000	    -39.66496907457288000000	     36.66515635299747800000	     71.07106657093925200000	     84.09407536197829800000	      0.00000000000000746889	     -0.00000000000000444397
      0.53900000000000003000	     -6.63953356863174630000	      2.18580027077106290000	     -4.29405429871442030000	      0.75494884705053611000	      0.98232475776417816000	     -0.31472690307300122000	      1.57582071774780630000	      1.78146229602853980000	     -3.60693662794308390000	    -30.85627685109792000000	      8.54737031301267260000	      0.00000000000007209580	      0.00000000000001506060	     45.81102980808479700000	     -0.23306532011536463000	     -6.06228556461199820000	   -120.67714285729633000000	     -2.61092852935288590000	      0.00000000000001248193	     -0.00000000000001269059	     -2.91033198250752400000	      1.73469017218878060000	      8.94196782674202420000	     -4.75884424134368980000	    -26.43782095148922900000	     -7.76821833639268440000	     77.12318413260580000000	     86.86817711461503700000	      0.00000000000000766453	      0.00000000000001974290	    -23.91909559736977500000	    -39.81185657936460800000	     36.65558856681723700000	     71.32308552745315900000	     83.86485598674383400000	      0.00000000000000760361	     -0.00000000000000446802
      0.54000000000000004000	     -6.58731257981267680000	      2.37142939099288870000	     -4.33074221131605430000	      0.75520501831888942000	      0.98305259275209556000	     -0.31467845118969856000	      1.08072341484475420000	      1.53963367066857910000	     -3.59833394887061790000	    -30.52692886049490500000	      7.96491234357712320000	      0.00000000000007284809	      0.00000000000001529130	     46.00404893152628500000	     -0.05055358111600170800	     -6.20128204869999240000	   -120.18768720023446000000	     -2.59888604734866350000	      0.00000000000001260217	     -0.00000000000001296367	     -2.91839874483255770000	      1.50248328102384890000	      9.12660814809661860000	     -4.74827312706355010000	    -26.37464185885647800000	     -7.78216635464187870000	     77.41571478811187000000	     86.84220408900523600000	      0.00000000000000774728	      0.00000000000001988084	    -24.18547935379647000000	    -39.95710288908466600000	     36.63750823281040400000	     71.57562740035967900000	     83.64257078881276200000	      0.00000000000000775188	     -0.00000000000000449242
